<?xml version="1.0" standalone="no"?>
<!DOCTYPE svg PUBLIC "-//W3C//DTD SVG 20010904//EN"
 "http://www.w3.org/TR/2001/REC-SVG-20010904/DTD/svg10.dtd">
<svg version="1.0" xmlns="http://www.w3.org/2000/svg"
 width="20.000000pt" height="30.000000pt" viewBox="0 0 20.000000 30.000000"
 preserveAspectRatio="xMidYMid meet">
<metadata>
Created by potrace 1.11, written by Peter Selinger 2001-2013
</metadata>
<g transform="translate(0.000000,30.000000) scale(0.100000,-0.100000)"
fill="#000000" stroke="none">
<path d="M115 290 c-3 -5 -1 -27 4 -47 15 -52 14 -55 -10 -43 -23 13 -69 6
-69 -10 0 -6 3 -10 8 -11 4 0 18 -2 30 -3 29 -3 45 -26 30 -43 -23 -28 -62
-10 -69 31 -2 11 -8 20 -14 20 -20 2 -15 -44 12 -108 28 -66 28 -66 68 -66 40
0 41 1 53 45 7 25 12 58 12 74 0 16 7 45 15 65 13 30 13 36 2 36 -10 0 -13 8
-9 25 5 27 -7 32 -26 13 -9 -9 -12 -7 -12 10 0 23 -14 30 -25 12z"/>
</g>
</svg>
