<?xml version="1.0" standalone="no"?>
<!DOCTYPE svg PUBLIC "-//W3C//DTD SVG 20010904//EN"
 "http://www.w3.org/TR/2001/REC-SVG-20010904/DTD/svg10.dtd">
<svg version="1.0" xmlns="http://www.w3.org/2000/svg"
 width="20.000000pt" height="29.000000pt" viewBox="0 0 20.000000 29.000000"
 preserveAspectRatio="xMidYMid meet">
<metadata>
Created by potrace 1.11, written by Peter Selinger 2001-2013
</metadata>
<g transform="translate(0.000000,29.000000) scale(0.100000,-0.100000)"
fill="#000000" stroke="none">
<path d="M119 278 c-2 -20 -2 -20 5 -60 7 -37 6 -38 -17 -29 -27 10 -67 4 -67
-10 0 -5 11 -9 24 -9 24 0 56 -23 56 -40 0 -10 -59 -24 -67 -16 -4 3 -7 14 -8
24 -1 25 -15 43 -26 37 -15 -10 -11 -35 18 -107 l28 -69 40 3 c37 3 40 5 53
48 8 25 14 57 13 72 -1 16 5 44 14 64 13 33 13 36 -1 30 -13 -5 -14 -1 -9 25
6 24 4 30 -6 27 -8 -3 -13 -17 -12 -34 2 -25 1 -26 -7 -9 -5 11 -9 30 -9 43
-1 23 -20 32 -22 10z"/>
</g>
</svg>
