<?xml version="1.0" standalone="no"?>
<!DOCTYPE svg PUBLIC "-//W3C//DTD SVG 20010904//EN"
 "http://www.w3.org/TR/2001/REC-SVG-20010904/DTD/svg10.dtd">
<svg version="1.0" xmlns="http://www.w3.org/2000/svg"
 width="2353.000000pt" height="3276.000000pt" viewBox="0 0 2353.000000 3276.000000"
 preserveAspectRatio="xMidYMid meet">
<metadata>
Created by potrace 1.11, written by Peter Selinger 2001-2013
</metadata>
<g transform="translate(0.000000,3276.000000) scale(0.100000,-0.100000)"
fill="#000000" stroke="none">
<path d="M13660 32294 c-166 -20 -217 -28 -297 -44 -521 -108 -958 -413 -1266
-885 -144 -220 -295 -557 -351 -780 -61 -247 -52 -733 24 -1343 189 -1501 706
-3737 1670 -7222 l178 -645 152 -760 c83 -418 154 -769 157 -780 3 -11 -68 52
-158 140 -454 444 -1004 880 -1554 1232 -1611 1030 -3259 1459 -4845 1262
-1037 -129 -2023 -514 -2988 -1166 -392 -264 -465 -330 -543 -489 -140 -287
-141 -723 -3 -1144 104 -315 275 -600 503 -834 258 -264 461 -380 756 -432
139 -24 459 -25 650 0 306 39 614 114 840 204 292 116 644 200 1030 244 64 7
231 13 400 12 311 0 451 -11 715 -60 1279 -236 2395 -1112 3255 -2557 98 -164
99 -169 139 -476 52 -399 65 -958 32 -1306 -72 -744 -273 -1290 -621 -1688
l-76 -87 -2944 0 -2944 0 -153 144 c-165 155 -460 466 -634 666 -275 318 -528
661 -702 951 l-52 87 0 2012 0 2013 -31 91 c-94 276 -273 565 -454 734 -294
274 -823 462 -1298 462 -358 -1 -688 -106 -952 -305 -297 -223 -474 -461 -624
-838 l-51 -127 0 -2636 0 -2635 2785 -5728 2785 -5728 0 -776 0 -777 4800 0
4800 0 0 777 0 776 1394 4341 1394 4341 21 170 c175 1423 171 2836 -10 3765
-81 417 -184 732 -345 1051 -233 466 -368 1049 -426 1834 -16 220 -16 964 0
1210 43 650 79 923 238 1805 884 4889 1436 8196 1446 8645 3 143 -19 540 -37
658 -46 307 -131 511 -289 687 -241 270 -615 522 -947 638 -320 112 -653 122
-938 26 -245 -82 -450 -228 -673 -479 -222 -250 -332 -471 -470 -945 l-51
-175 0 -240 c5 -1173 337 -3344 881 -5753 l48 -212 -155 2 -155 3 -1082 4483
c-595 2466 -1085 4487 -1090 4492 -14 13 -218 58 -344 75 -109 16 -465 28
-540 19z"/>
<path d="M20222 25269 c-110 -10 -276 -48 -370 -85 -430 -170 -715 -648 -1000
-1674 -302 -1088 -583 -2835 -722 -4495 -50 -596 -78 -1413 -65 -1917 l7 -308
37 -9 c20 -6 47 -13 61 -16 24 -6 62 71 1638 3342 1212 2516 1618 3367 1632
3423 39 156 54 297 55 510 0 270 -29 434 -105 597 -197 422 -668 677 -1168
632z"/>
</g>
</svg>
