<?xml version="1.0" standalone="no"?>
<!DOCTYPE svg PUBLIC "-//W3C//DTD SVG 20010904//EN"
 "http://www.w3.org/TR/2001/REC-SVG-20010904/DTD/svg10.dtd">
<svg version="1.0" xmlns="http://www.w3.org/2000/svg"
 width="20.000000pt" height="27.000000pt" viewBox="0 0 20.000000 27.000000"
 preserveAspectRatio="xMidYMid meet">
<metadata>
Created by potrace 1.11, written by Peter Selinger 2001-2013
</metadata>
<g transform="translate(0.000000,27.000000) scale(0.100000,-0.100000)"
fill="#000000" stroke="none">
<path d="M90 200 c0 -33 -4 -60 -10 -60 -5 0 -10 25 -10 55 0 30 -4 55 -10 55
-5 0 -10 -25 -10 -55 0 -30 -4 -55 -10 -55 -5 0 -10 20 -10 45 0 25 -5 45 -10
45 -7 0 -10 -38 -8 -107 l3 -108 72 -3 c71 -3 72 -2 88 27 17 33 21 111 5 111
-5 0 -10 -13 -10 -30 0 -16 -4 -30 -10 -30 -6 0 -10 33 -10 80 0 47 -4 80 -10
80 -5 0 -10 -25 -10 -55 0 -30 -4 -55 -10 -55 -6 0 -10 27 -10 60 0 33 -4 60
-10 60 -6 0 -10 -27 -10 -60z"/>
</g>
</svg>
