<?xml version="1.0" standalone="no"?>
<!DOCTYPE svg PUBLIC "-//W3C//DTD SVG 20010904//EN"
 "http://www.w3.org/TR/2001/REC-SVG-20010904/DTD/svg10.dtd">
<svg version="1.0" xmlns="http://www.w3.org/2000/svg"
 width="2353.000000pt" height="3276.000000pt" viewBox="0 0 2353.000000 3276.000000"
 preserveAspectRatio="xMidYMid meet">
<metadata>
Created by potrace 1.11, written by Peter Selinger 2001-2013
</metadata>
<g transform="translate(0.000000,3276.000000) scale(0.100000,-0.100000)"
fill="#ffffff" stroke="none">
<path d="M10965 32459 c-362 -49 -802 -282 -1058 -560 -149 -162 -286 -385
-371 -606 l-36 -92 0 -6716 0 -6715 -730 0 -730 0 0 5835 0 5835 -100 199
c-231 458 -422 672 -753 840 -532 271 -1177 224 -1708 -124 -265 -173 -502
-494 -624 -842 l-25 -73 0 -5835 0 -5835 -585 0 -585 0 0 4525 0 4525 -59 119
c-106 210 -228 405 -352 561 -212 268 -497 449 -833 528 -102 24 -129 26 -326
26 -187 1 -229 -2 -320 -22 -377 -82 -688 -262 -905 -522 -111 -133 -231 -324
-325 -514 l-89 -181 -16 -1015 c-75 -4822 -109 -7518 -147 -11820 -16 -1870
-17 -7099 0 -8065 29 -1745 63 -2611 118 -3069 21 -174 44 -260 104 -381 191
-390 633 -858 1270 -1346 333 -255 821 -581 1192 -797 l106 -62 6564 0 6563 0
440 147 440 146 435 291 436 290 2337 3505 2336 3506 291 1017 290 1018 0
3794 0 3793 -145 193 c-186 246 -252 325 -361 430 -107 103 -195 162 -362 246
-761 377 -1370 332 -1962 -145 -177 -143 -406 -383 -594 -624 l-76 -98 0
-2918 0 -2918 -1312 -1749 -1313 -1749 -5 10220 -5 10220 -73 139 c-261 496
-592 862 -913 1010 -576 264 -1291 97 -1737 -406 -155 -176 -300 -395 -417
-634 l-65 -131 0 -5542 0 -5541 -580 0 -580 0 0 6705 0 6705 -64 129 c-113
224 -232 415 -362 577 -221 278 -558 490 -889 559 -95 20 -330 28 -430 14z"/>
</g>
</svg>
