<?xml version="1.0" standalone="no"?>
<!DOCTYPE svg PUBLIC "-//W3C//DTD SVG 20010904//EN"
 "http://www.w3.org/TR/2001/REC-SVG-20010904/DTD/svg10.dtd">
<svg version="1.0" xmlns="http://www.w3.org/2000/svg"
 width="2410.000000pt" height="2049.000000pt" viewBox="0 0 2410.000000 2049.000000"
 preserveAspectRatio="xMidYMid meet">
<metadata>
Created by potrace 1.11, written by Peter Selinger 2001-2013
</metadata>
<g  transform="translate(0.000000,2049.000000) scale(0.100000,-0.100000)"
fill="#f00144" stroke="none">
<path d="M21175 19049 c-427 -45 -710 -219 -875 -540 -100 -194 -139 -331
-240 -832 -76 -380 -113 -536 -167 -701 -278 -862 -882 -1335 -2008 -1570
-226 -47 -543 -85 -980 -118 -338 -26 -1648 -15 -3490 28 -764 18 -1154 15
-1315 -11 -399 -63 -708 -183 -975 -380 -181 -133 -312 -269 -504 -525 -177
-235 -511 -733 -499 -745 12 -13 715 -355 724 -353 6 2 46 46 90 98 166 200
385 410 572 548 165 122 276 170 456 197 120 17 429 24 588 11 l108 -8 2 -875
3 -876 553 -273 552 -272 0 1149 0 1149 920 0 920 0 0 -1603 0 -1604 543 -267
c298 -148 548 -270 555 -273 9 -4 12 374 12 1870 l0 1875 93 6 c1823 130 3233
522 4212 1172 805 535 1260 1216 1370 2053 77 579 -37 1059 -321 1361 -231
245 -530 348 -899 309z"/>
</g>
<g transform="translate(0.000000,2049.000000) scale(0.100000,-0.100000)"
fill="#0076a3" stroke="none">
<path d="M9370 12733 c-490 -468 -936 -843 -2210 -1861 -1107 -885 -1439
-1160 -1817 -1506 -198 -181 -517 -504 -624 -631 -293 -348 -425 -630 -390
-828 50 -285 335 -433 936 -487 220 -19 683 -23 1220 -10 657 16 1255 17 1485
1 634 -44 984 -150 1181 -357 95 -101 139 -224 139 -394 0 -189 -56 -328 -180
-452 -93 -91 -211 -154 -361 -192 -207 -53 -373 -57 -862 -24 -383 26 -981 31
-1192 10 -374 -37 -670 -94 -1060 -203 -782 -220 -1485 -547 -1980 -923 -194
-147 -446 -389 -581 -556 -333 -413 -519 -856 -586 -1390 -17 -138 -17 -502 0
-600 100 -567 394 -920 846 -1016 247 -53 593 -9 829 104 283 135 449 365 562
777 19 72 67 286 105 477 39 192 86 410 105 485 94 367 218 640 399 881 92
122 291 315 417 404 304 216 690 375 1179 483 253 57 432 71 1060 85 450 10
592 18 845 46 614 68 1084 222 1330 434 164 141 329 396 409 631 46 136 103
393 130 590 l7 45 72 -8 c227 -27 518 51 738 199 80 53 195 169 234 237 71
122 118 330 119 526 1 186 -21 211 -98 112 -136 -177 -305 -266 -555 -293
-169 -19 -400 10 -586 73 l-70 23 -37 225 c-161 976 -220 1625 -220 2405 0
728 57 1398 177 2084 13 74 23 137 21 138 -7 7 -918 453 -924 452 -4 0 -99
-88 -212 -196z m162 -1005 c56 -23 78 -37 78 -50 0 -9 -13 -100 -29 -200 -141
-876 -196 -1495 -195 -2203 0 -453 5 -548 53 -967 22 -191 18 -229 -29 -270
-56 -51 -155 -37 -352 52 -422 191 -992 270 -1728 240 -618 -25 -698 -27 -795
-20 -131 10 -181 24 -222 65 -75 75 -35 170 202 470 293 372 606 726 891 1005
215 211 326 311 714 646 554 478 806 714 1126 1054 108 116 199 210 202 210 3
0 41 -14 84 -32z"/>
</g>
<g transform="translate(0.000000,2049.000000) scale(0.100000,-0.100000)"
fill="#00a93c" stroke="none">
<path d="M12660 8720 c0 -1479 -2 -2690 -5 -2690 -3 0 -33 14 -66 30 -33 17
-108 51 -167 75 -374 153 -678 152 -947 -3 -33 -20 -97 -72 -142 -117 -71 -72
-89 -98 -137 -196 -30 -63 -64 -147 -75 -187 -141 -516 114 -1109 574 -1339
207 -104 509 -160 803 -150 233 8 376 43 556 135 342 175 565 484 659 913 55
248 52 90 52 2987 l0 2693 -545 269 c-300 149 -548 270 -552 270 -5 0 -8
-1210 -8 -2690z"/>
<path d="M15610 7807 c0 -1340 4 -2188 10 -2247 21 -205 64 -360 146 -525 69
-141 154 -254 291 -385 221 -213 477 -342 798 -401 143 -27 413 -31 565 -10
479 67 923 303 1231 654 265 302 493 804 464 1021 -18 131 -88 206 -194 206
-127 0 -278 -106 -466 -325 -247 -289 -468 -448 -712 -511 -88 -23 -112 -25
-238 -21 -87 3 -163 11 -200 21 -320 89 -501 346 -559 794 -14 109 -16 317
-16 1726 l0 1601 -207 104 c-115 57 -367 182 -560 277 l-353 173 0 -2152z"/>
</g>
</svg>
